# Blender v2.83.3 OBJ File: ''
# www.blender.org
mtllib Tangga2.mtl
o Cube_Cube.004
v -0.500000 -0.001163 1.663933
v -0.500000 0.433442 1.663933
v -0.500000 -0.001163 -1.663933
v -0.500000 0.433442 -1.663933
v 0.500000 -0.001163 1.663933
v 0.500000 0.433442 1.663933
v 0.500000 -0.001163 -1.663933
v 0.500000 0.433442 -1.663933
v -1.382335 -0.001163 -1.663933
v -1.382335 -0.001163 1.663933
v -1.382335 0.433442 1.663933
v -1.382335 0.433442 -1.663933
v -0.500000 0.762276 1.663933
v -0.500000 0.762276 -1.663933
v -1.382335 0.762276 1.663933
v -1.382335 0.762276 -1.663933
v -2.312291 -0.001163 -1.663933
v -2.312291 -0.001163 1.663933
v -2.312291 0.433442 1.663933
v -2.312291 0.433442 -1.663933
v -2.312291 0.762276 1.663933
v -2.312291 0.762276 -1.663933
v -1.382335 1.052655 -1.663933
v -2.312291 1.052655 -1.663933
v -1.382335 1.052655 1.663933
v -2.312291 1.052655 1.663933
v -3.318769 -0.001163 -1.663933
v -3.318769 -0.001163 1.663933
v -3.318769 0.433442 1.663933
v -3.318769 0.433442 -1.663933
v -3.318769 0.762276 1.663933
v -3.318769 0.762276 -1.663933
v -3.318769 1.052655 1.663933
v -3.318769 1.052655 -1.663933
v -2.312291 1.373535 1.663933
v -2.312291 1.373535 -1.663933
v -3.318769 1.373535 1.663933
v -3.318769 1.373535 -1.663933
v -4.528481 -0.001163 -1.663933
v -4.528481 -0.001163 1.663933
v -4.528481 0.433442 1.663933
v -4.528481 0.433442 -1.663933
v -4.528481 0.762276 1.663933
v -4.528481 0.762276 -1.663933
v -4.528481 1.052655 1.663933
v -4.528481 1.052655 -1.663933
v -4.528481 1.373535 1.663933
v -4.528481 1.373535 -1.663933
v -3.318769 1.770608 1.663933
v -4.528481 1.770608 1.663933
v -3.318769 1.770608 -1.663933
v -4.528481 1.770608 -1.663933
v -5.801427 -0.001163 -1.663933
v -5.801427 -0.001163 1.663933
v -5.801427 0.433442 1.663933
v -5.801427 0.433442 -1.663933
v -5.801427 0.762276 1.663933
v -5.801427 0.762276 -1.663933
v -5.801427 1.052655 1.663933
v -5.801427 1.052655 -1.663933
v -5.801427 1.373535 1.663933
v -5.801427 1.373535 -1.663933
v -5.801427 1.770608 1.663933
v -5.801427 1.770608 -1.663933
v -5.801427 2.223374 1.663933
v -4.528481 2.223374 1.663933
v -4.528481 2.223374 -1.663933
v -5.801427 2.223374 -1.663933
v -10.252249 -0.025118 -1.663933
v -10.252249 -0.025118 1.663933
v -10.252249 0.033362 1.663933
v -10.252249 0.033362 -1.663933
v -10.252249 0.077610 1.663933
v -10.252249 0.077610 -1.663933
v -10.252249 0.116682 1.663933
v -10.252249 0.116682 -1.663933
v -10.252249 0.159860 1.663933
v -10.252249 0.159860 -1.663933
v -10.252249 0.213289 1.663933
v -10.252249 0.213289 -1.663933
v -10.252249 0.274213 1.663933
v -10.252249 0.274213 -1.663933
vt 0.625000 1.000000
vt 0.625000 1.000000
vt 0.625000 1.000000
vt 0.625000 1.000000
vt 0.375000 0.250000
vt 0.625000 0.250000
vt 0.625000 0.500000
vt 0.375000 0.500000
vt 0.625000 0.750000
vt 0.375000 0.750000
vt 0.375000 1.000000
vt 0.125000 0.500000
vt 0.125000 0.750000
vt 0.875000 0.500000
vt 0.875000 0.750000
vt 0.625000 0.250000
vt 0.375000 0.250000
vt 0.375000 0.250000
vt 0.625000 0.250000
vt 0.125000 0.750000
vt 0.125000 0.500000
vt 0.375000 1.000000
vt 0.875000 0.750000
vt 0.875000 0.500000
vt 0.875000 0.500000
vt 0.875000 0.750000
vt 0.625000 0.250000
vt 0.625000 0.250000
vt 0.875000 0.500000
vt 0.875000 0.750000
vt 0.625000 1.000000
vt 0.625000 1.000000
vt 0.625000 1.000000
vt 0.625000 1.000000
vt 0.625000 1.000000
vt 0.625000 1.000000
vt 0.375000 1.000000
vt 0.625000 0.250000
vt 0.125000 0.750000
vt 0.125000 0.500000
vt 0.875000 0.500000
vt 0.875000 0.750000
vt 0.125000 0.750000
vt 0.125000 0.500000
vt 0.625000 1.000000
vt 0.625000 0.250000
vt 0.625000 0.250000
vt 0.625000 0.250000
vt 0.625000 0.250000
vt 0.625000 0.250000
vt 0.625000 0.250000
vt 0.625000 0.250000
vt 0.625000 0.250000
vt 0.625000 1.000000
vt 0.625000 1.000000
vt 0.625000 0.250000
vt 0.625000 0.250000
vt 0.375000 0.250000
vt 0.375000 1.000000
vt 0.875000 0.750000
vt 0.875000 0.500000
vt 0.875000 0.500000
vt 0.875000 0.750000
vt 0.625000 1.000000
vt 0.625000 1.000000
vt 0.625000 1.000000
vt 0.625000 1.000000
vt 0.625000 0.250000
vt 0.625000 0.250000
vt 0.625000 0.250000
vt 0.625000 0.250000
vt 0.625000 1.000000
vt 0.625000 1.000000
vt 0.625000 1.000000
vt 0.625000 1.000000
vt 0.625000 0.250000
vt 0.625000 0.250000
vt 0.375000 0.250000
vt 0.125000 0.750000
vt 0.125000 0.500000
vt 0.875000 0.500000
vt 0.875000 0.750000
vt 0.375000 1.000000
vt 0.875000 0.500000
vt 0.875000 0.750000
vt 0.625000 0.250000
vt 0.625000 1.000000
vt 0.625000 1.000000
vt 0.625000 0.250000
vt 0.625000 0.250000
vt 0.625000 1.000000
vt 0.625000 1.000000
vt 0.875000 0.750000
vt 0.875000 0.500000
vt 0.875000 0.500000
vt 0.875000 0.750000
vt 0.625000 1.000000
vt 0.625000 1.000000
vt 0.625000 0.250000
vt 0.625000 0.250000
vt 0.625000 0.250000
vt 0.625000 0.250000
vt 0.625000 0.250000
vt 0.375000 0.250000
vt 0.625000 1.000000
vt 0.125000 0.750000
vt 0.125000 0.500000
vt 0.375000 1.000000
vt 0.875000 0.750000
vt 0.875000 0.500000
vt 0.625000 1.000000
vt 0.625000 1.000000
vt 0.375000 0.250000
vt 0.625000 0.250000
vt 0.375000 0.000000
vt 0.625000 0.000000
vt 0.625000 0.000000
vt 0.625000 0.250000
vt 0.625000 0.000000
vt 0.625000 0.000000
vt 0.625000 0.000000
vt 0.625000 0.000000
vt 0.125000 0.750000
vt 0.125000 0.500000
vt 0.625000 1.000000
vt 0.375000 1.000000
vt 0.625000 1.000000
vn 0.0000 0.0000 1.0000
vn 0.0000 0.0000 -1.0000
vn 1.0000 0.0000 0.0000
vn 0.0000 -1.0000 0.0000
vn 0.0000 1.0000 0.0000
vn -0.4012 0.9160 0.0000
vn -1.0000 0.0000 0.0000
vn 0.0054 -1.0000 0.0000
usemtl None
s off
f 11/1/1 2/2/1 13/3/1 15/4/1
f 3/5/2 4/6/2 8/7/2 7/8/2
f 7/8/3 8/7/3 6/9/3 5/10/3
f 5/10/1 6/9/1 2/2/1 1/11/1
f 3/12/4 7/8/4 5/10/4 1/13/4
f 8/7/5 4/14/5 2/15/5 6/9/5
f 12/16/2 9/17/2 17/18/2 20/19/2
f 3/12/4 1/13/4 10/20/4 9/21/4
f 4/6/2 3/5/2 9/17/2 12/16/2
f 1/11/1 2/2/1 11/1/1 10/22/1
f 13/23/5 14/24/5 16/25/5 15/26/5
f 2/15/3 4/14/3 14/24/3 13/23/3
f 4/6/2 12/16/2 16/27/2 14/28/2
f 15/26/3 16/25/3 23/29/3 25/30/3
f 19/31/1 21/32/1 31/33/1 29/34/1
f 21/32/1 26/35/1 33/36/1 31/33/1
f 10/22/1 11/1/1 19/31/1 18/37/1
f 16/27/2 12/16/2 20/19/2 22/38/2
f 11/1/1 15/4/1 21/32/1 19/31/1
f 9/21/4 10/20/4 18/39/4 17/40/4
f 25/30/5 23/29/5 24/41/5 26/42/5
f 17/40/4 18/39/4 28/43/4 27/44/4
f 21/32/1 15/4/1 25/45/1 26/35/1
f 16/27/2 22/38/2 24/46/2 23/47/2
f 32/48/2 30/49/2 42/50/2 44/51/2
f 34/52/2 32/48/2 44/51/2 46/53/2
f 29/34/1 31/33/1 43/54/1 41/55/1
f 24/46/2 34/52/2 38/56/2 36/57/2
f 20/19/2 17/18/2 27/58/2 30/49/2
f 18/37/1 19/31/1 29/34/1 28/59/1
f 24/46/2 22/38/2 32/48/2 34/52/2
f 22/38/2 20/19/2 30/49/2 32/48/2
f 35/60/5 36/61/5 38/62/5 37/63/5
f 33/36/1 37/64/1 47/65/1 45/66/1
f 26/42/3 24/41/3 36/61/3 35/60/3
f 33/36/1 26/35/1 35/67/1 37/64/1
f 52/68/2 48/69/2 62/70/2 64/71/2
f 45/66/1 47/65/1 61/72/1 59/73/1
f 41/55/1 43/54/1 57/74/1 55/75/1
f 52/68/2 64/71/2 68/76/2 67/77/2
f 30/49/2 27/58/2 39/78/2 42/50/2
f 38/56/2 34/52/2 46/53/2 48/69/2
f 27/44/4 28/43/4 40/79/4 39/80/4
f 37/63/3 38/62/3 51/81/3 49/82/3
f 28/59/1 29/34/1 41/55/1 40/83/1
f 31/33/1 33/36/1 45/66/1 43/54/1
f 49/82/5 51/81/5 52/84/5 50/85/5
f 38/56/2 48/69/2 52/68/2 51/86/2
f 47/65/1 37/64/1 49/87/1 50/88/1
f 43/54/1 45/66/1 59/73/1 57/74/1
f 68/76/2 64/71/2 80/89/2 82/90/2
f 55/75/1 57/74/1 73/91/1 71/92/1
f 65/93/6 68/94/6 82/95/6 81/96/6
f 59/73/1 61/72/1 77/97/1 75/98/1
f 62/70/2 60/99/2 76/100/2 78/101/2
f 46/53/2 44/51/2 58/102/2 60/99/2
f 44/51/2 42/50/2 56/103/2 58/102/2
f 42/50/2 39/78/2 53/104/2 56/103/2
f 47/65/1 50/88/1 63/105/1 61/72/1
f 39/80/4 40/79/4 54/106/4 53/107/4
f 48/69/2 46/53/2 60/99/2 62/70/2
f 40/83/1 41/55/1 55/75/1 54/108/1
f 66/109/5 67/110/5 68/94/5 65/93/5
f 63/105/1 50/88/1 66/111/1 65/112/1
f 50/85/3 52/84/3 67/110/3 66/109/3
f 56/103/2 53/104/2 69/113/2 72/114/2
f 70/115/7 71/116/7 72/114/7 69/113/7
f 72/114/7 71/116/7 73/117/7 74/118/7
f 74/118/7 73/117/7 75/119/7 76/100/7
f 76/100/7 75/119/7 77/120/7 78/101/7
f 78/101/7 77/120/7 79/121/7 80/89/7
f 80/89/7 79/121/7 81/122/7 82/90/7
f 58/102/2 56/103/2 72/114/2 74/118/2
f 64/71/2 62/70/2 78/101/2 80/89/2
f 53/107/8 54/106/8 70/123/8 69/124/8
f 61/72/1 63/105/1 79/125/1 77/97/1
f 57/74/1 59/73/1 75/98/1 73/91/1
f 54/108/1 55/75/1 71/92/1 70/126/1
f 63/105/1 65/112/1 81/127/1 79/125/1
f 60/99/2 58/102/2 74/118/2 76/100/2
